<?xml version="1.0" standalone="no"?><svg xmlns="http://www.w3.org/2000/svg" viewBox="0 0 1440 320"><path fill="#273036" fill-opacity="1" d="M0,96L30,117.3C60,139,120,181,180,165.3C240,149,300,75,360,58.7C420,43,480,85,540,106.7C600,128,660,128,720,117.3C780,107,840,85,900,80C960,75,1020,85,1080,122.7C1140,160,1200,224,1260,213.3C1320,203,1380,117,1410,74.7L1440,32L1440,320L1410,320C1380,320,1320,320,1260,320C1200,320,1140,320,1080,320C1020,320,960,320,900,320C840,320,780,320,720,320C660,320,600,320,540,320C480,320,420,320,360,320C300,320,240,320,180,320C120,320,60,320,30,320L0,320Z"></path></svg>